<?xml version="1.0" encoding="utf-8" standalone="no"?>
<!DOCTYPE svg PUBLIC "-//W3C//DTD SVG 1.1//EN"
  "http://www.w3.org/Graphics/SVG/1.1/DTD/svg11.dtd">
<svg xmlns:xlink="http://www.w3.org/1999/xlink" width="469.368pt" height="265.834125pt" viewBox="0 0 469.368 265.834125" xmlns="http://www.w3.org/2000/svg" version="1.1">
 <metadata>
  <rdf:RDF xmlns:dc="http://purl.org/dc/elements/1.1/" xmlns:cc="http://creativecommons.org/ns#" xmlns:rdf="http://www.w3.org/1999/02/22-rdf-syntax-ns#">
   <cc:Work>
    <dc:type rdf:resource="http://purl.org/dc/dcmitype/StillImage"/>
    <dc:date>2026-06-14T22:37:41.470062</dc:date>
    <dc:format>image/svg+xml</dc:format>
    <dc:creator>
     <cc:Agent>
      <dc:title>Matplotlib v3.10.7, https://matplotlib.org/</dc:title>
     </cc:Agent>
    </dc:creator>
   </cc:Work>
  </rdf:RDF>
 </metadata>
 <defs>
  <style type="text/css">*{stroke-linejoin: round; stroke-linecap: butt}</style>
 </defs>
 <g id="figure_1">
  <g id="patch_1">
   <path d="M 0 265.834125 
L 469.368 265.834125 
L 469.368 0 
L 0 0 
z
" style="fill: #ffffff"/>
  </g>
  <g id="axes_1">
   <g id="patch_2">
    <path d="M 65.988 231.634125 
L 254.107658 231.634125 
L 254.107658 23.734125 
L 65.988 23.734125 
z
" style="fill: #ffffff"/>
   </g>
   <g id="line2d_1">
    <path d="M 65.988 131.682202 
L 254.107658 131.682202 
" clip-path="url(#p079e2c76db)" style="fill: none; stroke-dasharray: 2.59,1.12; stroke-dashoffset: 0; stroke: #bdbdbd; stroke-width: 0.7"/>
   </g>
   <g id="matplotlib.axis_1">
    <g id="xtick_1">
     <g id="line2d_2">
      <defs>
       <path id="me5172a7d02" d="M 0 0 
L 0 3.5 
" style="stroke: #000000; stroke-width: 0.8"/>
      </defs>
      <g>
       <use xlink:href="#me5172a7d02" x="72.706559" y="231.634125" style="stroke: #000000; stroke-width: 0.8"/>
      </g>
     </g>
     <g id="text_1">
      <text style="font-size: 7.5px; font-family: 'Arial', 'DejaVu Sans', 'Liberation Sans', sans-serif; text-anchor: middle" x="72.706559" y="244.002484" transform="rotate(-0 72.706559 244.002484)">Precision</text>
     </g>
    </g>
    <g id="xtick_2">
     <g id="line2d_3">
      <g>
       <use xlink:href="#me5172a7d02" x="139.892151" y="231.634125" style="stroke: #000000; stroke-width: 0.8"/>
      </g>
     </g>
     <g id="text_2">
      <text style="font-size: 7.5px; font-family: 'Arial', 'DejaVu Sans', 'Liberation Sans', sans-serif; text-anchor: middle" x="139.892151" y="244.002484" transform="rotate(-0 139.892151 244.002484)">Recall</text>
     </g>
    </g>
    <g id="xtick_3">
     <g id="line2d_4">
      <g>
       <use xlink:href="#me5172a7d02" x="207.077744" y="231.634125" style="stroke: #000000; stroke-width: 0.8"/>
      </g>
     </g>
     <g id="text_3">
      <text style="font-size: 7.5px; font-family: 'Arial', 'DejaVu Sans', 'Liberation Sans', sans-serif; text-anchor: middle" x="207.077744" y="244.002484" transform="rotate(-0 207.077744 244.002484)">F1</text>
     </g>
    </g>
   </g>
   <g id="matplotlib.axis_2">
    <g id="ytick_1">
     <g id="line2d_5">
      <path d="M 65.988 231.634125 
L 254.107658 231.634125 
" clip-path="url(#p079e2c76db)" style="fill: none; stroke: #e5e5e5; stroke-width: 0.7; stroke-linecap: square"/>
     </g>
     <g id="line2d_6">
      <defs>
       <path id="md2a946cb6f" d="M 0 0 
L -3.5 0 
" style="stroke: #000000; stroke-width: 0.8"/>
      </defs>
      <g>
       <use xlink:href="#md2a946cb6f" x="65.988" y="231.634125" style="stroke: #000000; stroke-width: 0.8"/>
      </g>
     </g>
     <g id="text_4">
      <text style="font-size: 7.5px; font-family: 'Arial', 'DejaVu Sans', 'Liberation Sans', sans-serif; text-anchor: end" x="58.988" y="234.318305" transform="rotate(-0 58.988 234.318305)">0.0</text>
     </g>
    </g>
    <g id="ytick_2">
     <g id="line2d_7">
      <path d="M 65.988 191.653356 
L 254.107658 191.653356 
" clip-path="url(#p079e2c76db)" style="fill: none; stroke: #e5e5e5; stroke-width: 0.7; stroke-linecap: square"/>
     </g>
     <g id="line2d_8">
      <g>
       <use xlink:href="#md2a946cb6f" x="65.988" y="191.653356" style="stroke: #000000; stroke-width: 0.8"/>
      </g>
     </g>
     <g id="text_5">
      <text style="font-size: 7.5px; font-family: 'Arial', 'DejaVu Sans', 'Liberation Sans', sans-serif; text-anchor: end" x="58.988" y="194.337535" transform="rotate(-0 58.988 194.337535)">0.2</text>
     </g>
    </g>
    <g id="ytick_3">
     <g id="line2d_9">
      <path d="M 65.988 151.672587 
L 254.107658 151.672587 
" clip-path="url(#p079e2c76db)" style="fill: none; stroke: #e5e5e5; stroke-width: 0.7; stroke-linecap: square"/>
     </g>
     <g id="line2d_10">
      <g>
       <use xlink:href="#md2a946cb6f" x="65.988" y="151.672587" style="stroke: #000000; stroke-width: 0.8"/>
      </g>
     </g>
     <g id="text_6">
      <text style="font-size: 7.5px; font-family: 'Arial', 'DejaVu Sans', 'Liberation Sans', sans-serif; text-anchor: end" x="58.988" y="154.356766" transform="rotate(-0 58.988 154.356766)">0.4</text>
     </g>
    </g>
    <g id="ytick_4">
     <g id="line2d_11">
      <path d="M 65.988 111.691817 
L 254.107658 111.691817 
" clip-path="url(#p079e2c76db)" style="fill: none; stroke: #e5e5e5; stroke-width: 0.7; stroke-linecap: square"/>
     </g>
     <g id="line2d_12">
      <g>
       <use xlink:href="#md2a946cb6f" x="65.988" y="111.691817" style="stroke: #000000; stroke-width: 0.8"/>
      </g>
     </g>
     <g id="text_7">
      <text style="font-size: 7.5px; font-family: 'Arial', 'DejaVu Sans', 'Liberation Sans', sans-serif; text-anchor: end" x="58.988" y="114.375997" transform="rotate(-0 58.988 114.375997)">0.6</text>
     </g>
    </g>
    <g id="ytick_5">
     <g id="line2d_13">
      <path d="M 65.988 71.711048 
L 254.107658 71.711048 
" clip-path="url(#p079e2c76db)" style="fill: none; stroke: #e5e5e5; stroke-width: 0.7; stroke-linecap: square"/>
     </g>
     <g id="line2d_14">
      <g>
       <use xlink:href="#md2a946cb6f" x="65.988" y="71.711048" style="stroke: #000000; stroke-width: 0.8"/>
      </g>
     </g>
     <g id="text_8">
      <text style="font-size: 7.5px; font-family: 'Arial', 'DejaVu Sans', 'Liberation Sans', sans-serif; text-anchor: end" x="58.988" y="74.395228" transform="rotate(-0 58.988 74.395228)">0.8</text>
     </g>
    </g>
    <g id="ytick_6">
     <g id="line2d_15">
      <path d="M 65.988 31.730279 
L 254.107658 31.730279 
" clip-path="url(#p079e2c76db)" style="fill: none; stroke: #e5e5e5; stroke-width: 0.7; stroke-linecap: square"/>
     </g>
     <g id="line2d_16">
      <g>
       <use xlink:href="#md2a946cb6f" x="65.988" y="31.730279" style="stroke: #000000; stroke-width: 0.8"/>
      </g>
     </g>
     <g id="text_9">
      <text style="font-size: 7.5px; font-family: 'Arial', 'DejaVu Sans', 'Liberation Sans', sans-serif; text-anchor: end" x="58.988" y="34.414459" transform="rotate(-0 58.988 34.414459)">1.0</text>
     </g>
    </g>
    <g id="text_10">
     <text style="font-size: 7.5px; font-family: 'Arial', 'DejaVu Sans', 'Liberation Sans', sans-serif; text-anchor: middle" x="43.072375" y="127.684125" transform="rotate(-90 43.072375 127.684125)">Score</text>
    </g>
   </g>
   <g id="patch_3">
    <path d="M 65.988 231.634125 
L 65.988 23.734125 
" style="fill: none; stroke: #000000; stroke-width: 0.8; stroke-linejoin: miter; stroke-linecap: square"/>
   </g>
   <g id="patch_4">
    <path d="M 65.988 231.634125 
L 254.107658 231.634125 
" style="fill: none; stroke: #000000; stroke-width: 0.8; stroke-linejoin: miter; stroke-linecap: square"/>
   </g>
   <g id="text_11">
    <text style="font-size: 6.8px; font-family: 'Arial', 'DejaVu Sans', 'Liberation Sans', sans-serif; text-anchor: start; fill: #b64342" x="212.452591" y="100.475211" transform="rotate(-0 212.452591 100.475211)">Our method</text>
   </g>
   <g id="line2d_17">
    <path d="M 72.706559 150.298925 
L 139.892151 33.491546 
L 207.077744 116.304983 
" clip-path="url(#p079e2c76db)" style="fill: none; stroke: #0f4d92; stroke-width: 1.1; stroke-linecap: square"/>
    <defs>
     <path id="m3840c224a9" d="M 0 2 
C 0.530406 2 1.03916 1.789267 1.414214 1.414214 
C 1.789267 1.03916 2 0.530406 2 0 
C 2 -0.530406 1.789267 -1.03916 1.414214 -1.414214 
C 1.03916 -1.789267 0.530406 -2 0 -2 
C -0.530406 -2 -1.03916 -1.789267 -1.414214 -1.414214 
C -1.789267 -1.03916 -2 -0.530406 -2 0 
C -2 0.530406 -1.789267 1.03916 -1.414214 1.414214 
C -1.03916 1.789267 -0.530406 2 0 2 
z
" style="stroke: #0f4d92"/>
    </defs>
    <g clip-path="url(#p079e2c76db)">
     <use xlink:href="#m3840c224a9" x="72.706559" y="150.298925" style="fill: #0f4d92; stroke: #0f4d92"/>
     <use xlink:href="#m3840c224a9" x="139.892151" y="33.491546" style="fill: #0f4d92; stroke: #0f4d92"/>
     <use xlink:href="#m3840c224a9" x="207.077744" y="116.304983" style="fill: #0f4d92; stroke: #0f4d92"/>
    </g>
   </g>
   <g id="text_12">
    <text style="font-size: 6.8px; font-family: 'Arial', 'DejaVu Sans', 'Liberation Sans', sans-serif; text-anchor: start; fill: #0f4d92" x="212.452591" y="120.461735" transform="rotate(-0 212.452591 120.461735)">Slither</text>
   </g>
   <g id="line2d_18">
    <path d="M 72.706559 138.062112 
L 139.892151 151.672587 
L 207.077744 145.401093 
" clip-path="url(#p079e2c76db)" style="fill: none; stroke: #7a7a7a; stroke-opacity: 0.7; stroke-width: 1.1; stroke-linecap: square"/>
    <defs>
     <path id="m22e0300b2e" d="M 0 2 
C 0.530406 2 1.03916 1.789267 1.414214 1.414214 
C 1.789267 1.03916 2 0.530406 2 0 
C 2 -0.530406 1.789267 -1.03916 1.414214 -1.414214 
C 1.03916 -1.789267 0.530406 -2 0 -2 
C -0.530406 -2 -1.03916 -1.789267 -1.414214 -1.414214 
C -1.789267 -1.03916 -2 -0.530406 -2 0 
C -2 0.530406 -1.789267 1.03916 -1.414214 1.414214 
C -1.03916 1.789267 -0.530406 2 0 2 
z
" style="stroke: #7a7a7a; stroke-opacity: 0.7"/>
    </defs>
    <g clip-path="url(#p079e2c76db)">
     <use xlink:href="#m22e0300b2e" x="72.706559" y="138.062112" style="fill: #7a7a7a; fill-opacity: 0.7; stroke: #7a7a7a; stroke-opacity: 0.7"/>
     <use xlink:href="#m22e0300b2e" x="139.892151" y="151.672587" style="fill: #7a7a7a; fill-opacity: 0.7; stroke: #7a7a7a; stroke-opacity: 0.7"/>
     <use xlink:href="#m22e0300b2e" x="207.077744" y="145.401093" style="fill: #7a7a7a; fill-opacity: 0.7; stroke: #7a7a7a; stroke-opacity: 0.7"/>
    </g>
   </g>
   <g id="text_13">
    <text style="font-size: 6.8px; font-family: 'Arial', 'DejaVu Sans', 'Liberation Sans', sans-serif; text-anchor: start; fill: #7a7a7a" x="212.452591" y="143.920694" transform="rotate(-0 212.452591 143.920694)">Mythril</text>
   </g>
   <g id="line2d_19">
    <path d="M 72.706559 93.239155 
L 139.892151 207.961301 
L 207.077744 191.204134 
" clip-path="url(#p079e2c76db)" style="fill: none; stroke: #a8a8a8; stroke-opacity: 0.7; stroke-width: 1.1; stroke-linecap: square"/>
    <defs>
     <path id="m20a71d9a76" d="M 0 2 
C 0.530406 2 1.03916 1.789267 1.414214 1.414214 
C 1.789267 1.03916 2 0.530406 2 0 
C 2 -0.530406 1.789267 -1.03916 1.414214 -1.414214 
C 1.03916 -1.789267 0.530406 -2 0 -2 
C -0.530406 -2 -1.03916 -1.789267 -1.414214 -1.414214 
C -1.789267 -1.03916 -2 -0.530406 -2 0 
C -2 0.530406 -1.789267 1.03916 -1.414214 1.414214 
C -1.03916 1.789267 -0.530406 2 0 2 
z
" style="stroke: #a8a8a8; stroke-opacity: 0.7"/>
    </defs>
    <g clip-path="url(#p079e2c76db)">
     <use xlink:href="#m20a71d9a76" x="72.706559" y="93.239155" style="fill: #a8a8a8; fill-opacity: 0.7; stroke: #a8a8a8; stroke-opacity: 0.7"/>
     <use xlink:href="#m20a71d9a76" x="139.892151" y="207.961301" style="fill: #a8a8a8; fill-opacity: 0.7; stroke: #a8a8a8; stroke-opacity: 0.7"/>
     <use xlink:href="#m20a71d9a76" x="207.077744" y="191.204134" style="fill: #a8a8a8; fill-opacity: 0.7; stroke: #a8a8a8; stroke-opacity: 0.7"/>
    </g>
   </g>
   <g id="text_14">
    <text style="font-size: 6.8px; font-family: 'Arial', 'DejaVu Sans', 'Liberation Sans', sans-serif; text-anchor: start; fill: #a8a8a8" x="212.452591" y="196.160501" transform="rotate(-0 212.452591 196.160501)">Sailfish</text>
   </g>
   <g id="line2d_20">
    <path d="M 72.706559 166.280945 
L 139.892151 201.69258 
L 207.077744 190.566265 
" clip-path="url(#p079e2c76db)" style="fill: none; stroke: #4d4d4d; stroke-opacity: 0.7; stroke-width: 1.1; stroke-linecap: square"/>
    <defs>
     <path id="m9e84f60959" d="M 0 2 
C 0.530406 2 1.03916 1.789267 1.414214 1.414214 
C 1.789267 1.03916 2 0.530406 2 0 
C 2 -0.530406 1.789267 -1.03916 1.414214 -1.414214 
C 1.03916 -1.789267 0.530406 -2 0 -2 
C -0.530406 -2 -1.03916 -1.789267 -1.414214 -1.414214 
C -1.789267 -1.03916 -2 -0.530406 -2 0 
C -2 0.530406 -1.789267 1.03916 -1.414214 1.414214 
C -1.03916 1.789267 -0.530406 2 0 2 
z
" style="stroke: #4d4d4d; stroke-opacity: 0.7"/>
    </defs>
    <g clip-path="url(#p079e2c76db)">
     <use xlink:href="#m9e84f60959" x="72.706559" y="166.280945" style="fill: #4d4d4d; fill-opacity: 0.7; stroke: #4d4d4d; stroke-opacity: 0.7"/>
     <use xlink:href="#m9e84f60959" x="139.892151" y="201.69258" style="fill: #4d4d4d; fill-opacity: 0.7; stroke: #4d4d4d; stroke-opacity: 0.7"/>
     <use xlink:href="#m9e84f60959" x="207.077744" y="190.566265" style="fill: #4d4d4d; fill-opacity: 0.7; stroke: #4d4d4d; stroke-opacity: 0.7"/>
    </g>
   </g>
   <g id="text_15">
    <text style="font-size: 6.8px; font-family: 'Arial', 'DejaVu Sans', 'Liberation Sans', sans-serif; text-anchor: start; fill: #4d4d4d" x="212.452591" y="189.12571" transform="rotate(-0 212.452591 189.12571)">SliSE</text>
   </g>
   <g id="text_16">
    <text style="font-weight: 700; font-size: 9px; font-family: 'Arial', 'DejaVu Sans', 'Liberation Sans', sans-serif; text-anchor: start" x="50.938427" y="13.642031" transform="rotate(-0 50.938427 13.642031)">a</text>
   </g>
   <g id="text_17">
    <text style="font-size: 8.5px; font-family: 'Arial', 'DejaVu Sans', 'Liberation Sans', sans-serif; text-anchor: start" x="65.988" y="16.734125" transform="rotate(-0 65.988 16.734125)">Function-level detection profile</text>
   </g>
   <g id="line2d_21">
    <path d="M 72.706559 106.594667 
L 139.892151 93.374637 
L 207.077744 100.316536 
" clip-path="url(#p079e2c76db)" style="fill: none; stroke: #b64342; stroke-width: 2.2; stroke-linecap: square"/>
    <defs>
     <path id="m7acf380fd2" d="M 0 2.6 
C 0.689528 2.6 1.350908 2.326048 1.838478 1.838478 
C 2.326048 1.350908 2.6 0.689528 2.6 0 
C 2.6 -0.689528 2.326048 -1.350908 1.838478 -1.838478 
C 1.350908 -2.326048 0.689528 -2.6 0 -2.6 
C -0.689528 -2.6 -1.350908 -2.326048 -1.838478 -1.838478 
C -2.326048 -1.350908 -2.6 -0.689528 -2.6 0 
C -2.6 0.689528 -2.326048 1.350908 -1.838478 1.838478 
C -1.350908 2.326048 -0.689528 2.6 0 2.6 
z
" style="stroke: #b64342"/>
    </defs>
    <g clip-path="url(#p079e2c76db)">
     <use xlink:href="#m7acf380fd2" x="72.706559" y="106.594667" style="fill: #b64342; stroke: #b64342"/>
     <use xlink:href="#m7acf380fd2" x="139.892151" y="93.374637" style="fill: #b64342; stroke: #b64342"/>
     <use xlink:href="#m7acf380fd2" x="207.077744" y="100.316536" style="fill: #b64342; stroke: #b64342"/>
    </g>
   </g>
  </g>
  <g id="axes_2">
   <g id="patch_5">
    <path d="M 311.672274 231.634125 
L 462.168 231.634125 
L 462.168 23.734125 
L 311.672274 23.734125 
z
" style="fill: #ffffff"/>
   </g>
   <g id="patch_6">
    <path d="M 311.672274 33.184125 
L 348.416685 33.184125 
L 348.416685 64.684125 
L 311.672274 64.684125 
z
" clip-path="url(#padb7d27863)" style="fill: #e9a6a1; stroke: #ffffff; stroke-width: 0.5; stroke-linejoin: miter"/>
   </g>
   <g id="patch_7">
    <path d="M 311.672274 72.559125 
L 439.886815 72.559125 
L 439.886815 104.059125 
L 311.672274 104.059125 
z
" clip-path="url(#padb7d27863)" style="fill: #e9a6a1; stroke: #ffffff; stroke-width: 0.5; stroke-linejoin: miter"/>
   </g>
   <g id="patch_8">
    <path d="M 311.672274 111.934125 
L 340.989623 111.934125 
L 340.989623 143.434125 
L 311.672274 143.434125 
z
" clip-path="url(#padb7d27863)" style="fill: #e9a6a1; stroke: #ffffff; stroke-width: 0.5; stroke-linejoin: miter"/>
   </g>
   <g id="patch_9">
    <path d="M 311.672274 151.309125 
L 314.799457 151.309125 
L 314.799457 182.809125 
L 311.672274 182.809125 
z
" clip-path="url(#padb7d27863)" style="fill: #e9a6a1; stroke: #ffffff; stroke-width: 0.5; stroke-linejoin: miter"/>
   </g>
   <g id="patch_10">
    <path d="M 311.672274 190.684125 
L 339.035133 190.684125 
L 339.035133 222.184125 
L 311.672274 222.184125 
z
" clip-path="url(#padb7d27863)" style="fill: #e9a6a1; stroke: #ffffff; stroke-width: 0.5; stroke-linejoin: miter"/>
   </g>
   <g id="patch_11">
    <path d="M 348.416685 33.184125 
L 375.779544 33.184125 
L 375.779544 64.684125 
L 348.416685 64.684125 
z
" clip-path="url(#padb7d27863)" style="fill: #b4c0e4; stroke: #ffffff; stroke-width: 0.5; stroke-linejoin: miter"/>
   </g>
   <g id="patch_12">
    <path d="M 439.886815 72.559125 
L 440.668611 72.559125 
L 440.668611 104.059125 
L 439.886815 104.059125 
z
" clip-path="url(#padb7d27863)" style="fill: #b4c0e4; stroke: #ffffff; stroke-width: 0.5; stroke-linejoin: miter"/>
   </g>
   <g id="patch_13">
    <path d="M 340.989623 111.934125 
L 379.688524 111.934125 
L 379.688524 143.434125 
L 340.989623 143.434125 
z
" clip-path="url(#padb7d27863)" style="fill: #b4c0e4; stroke: #ffffff; stroke-width: 0.5; stroke-linejoin: miter"/>
   </g>
   <g id="patch_14">
    <path d="M 314.799457 151.309125 
L 367.179788 151.309125 
L 367.179788 182.809125 
L 314.799457 182.809125 
z
" clip-path="url(#padb7d27863)" style="fill: #b4c0e4; stroke: #ffffff; stroke-width: 0.5; stroke-linejoin: miter"/>
   </g>
   <g id="patch_15">
    <path d="M 339.035133 190.684125 
L 414.478445 190.684125 
L 414.478445 222.184125 
L 339.035133 222.184125 
z
" clip-path="url(#padb7d27863)" style="fill: #b4c0e4; stroke: #ffffff; stroke-width: 0.5; stroke-linejoin: miter"/>
   </g>
   <g id="matplotlib.axis_3">
    <g id="xtick_4">
     <g id="line2d_22">
      <path d="M 311.672274 231.634125 
L 311.672274 23.734125 
" clip-path="url(#padb7d27863)" style="fill: none; stroke: #e5e5e5; stroke-width: 0.7; stroke-linecap: square"/>
     </g>
     <g id="line2d_23">
      <g>
       <use xlink:href="#me5172a7d02" x="311.672274" y="231.634125" style="stroke: #000000; stroke-width: 0.8"/>
      </g>
     </g>
     <g id="text_18">
      <text style="font-size: 7.5px; font-family: 'Arial', 'DejaVu Sans', 'Liberation Sans', sans-serif; text-anchor: middle" x="311.672274" y="244.002484" transform="rotate(-0 311.672274 244.002484)">0</text>
     </g>
    </g>
    <g id="xtick_5">
     <g id="line2d_24">
      <path d="M 350.762073 231.634125 
L 350.762073 23.734125 
" clip-path="url(#padb7d27863)" style="fill: none; stroke: #e5e5e5; stroke-width: 0.7; stroke-linecap: square"/>
     </g>
     <g id="line2d_25">
      <g>
       <use xlink:href="#me5172a7d02" x="350.762073" y="231.634125" style="stroke: #000000; stroke-width: 0.8"/>
      </g>
     </g>
     <g id="text_19">
      <text style="font-size: 7.5px; font-family: 'Arial', 'DejaVu Sans', 'Liberation Sans', sans-serif; text-anchor: middle" x="350.762073" y="244.002484" transform="rotate(-0 350.762073 244.002484)">100</text>
     </g>
    </g>
    <g id="xtick_6">
     <g id="line2d_26">
      <path d="M 389.851872 231.634125 
L 389.851872 23.734125 
" clip-path="url(#padb7d27863)" style="fill: none; stroke: #e5e5e5; stroke-width: 0.7; stroke-linecap: square"/>
     </g>
     <g id="line2d_27">
      <g>
       <use xlink:href="#me5172a7d02" x="389.851872" y="231.634125" style="stroke: #000000; stroke-width: 0.8"/>
      </g>
     </g>
     <g id="text_20">
      <text style="font-size: 7.5px; font-family: 'Arial', 'DejaVu Sans', 'Liberation Sans', sans-serif; text-anchor: middle" x="389.851872" y="244.002484" transform="rotate(-0 389.851872 244.002484)">200</text>
     </g>
    </g>
    <g id="xtick_7">
     <g id="line2d_28">
      <path d="M 428.941671 231.634125 
L 428.941671 23.734125 
" clip-path="url(#padb7d27863)" style="fill: none; stroke: #e5e5e5; stroke-width: 0.7; stroke-linecap: square"/>
     </g>
     <g id="line2d_29">
      <g>
       <use xlink:href="#me5172a7d02" x="428.941671" y="231.634125" style="stroke: #000000; stroke-width: 0.8"/>
      </g>
     </g>
     <g id="text_21">
      <text style="font-size: 7.5px; font-family: 'Arial', 'DejaVu Sans', 'Liberation Sans', sans-serif; text-anchor: middle" x="428.941671" y="244.002484" transform="rotate(-0 428.941671 244.002484)">300</text>
     </g>
    </g>
    <g id="text_22">
     <text style="font-size: 7.5px; font-family: 'Arial', 'DejaVu Sans', 'Liberation Sans', sans-serif; text-anchor: middle" x="386.920137" y="254.861469" transform="rotate(-0 386.920137 254.861469)">Count</text>
    </g>
   </g>
   <g id="matplotlib.axis_4">
    <g id="ytick_7">
     <g id="line2d_30">
      <g>
       <use xlink:href="#md2a946cb6f" x="311.672274" y="48.934125" style="stroke: #000000; stroke-width: 0.8"/>
      </g>
     </g>
     <g id="text_23">
      <text style="font-size: 7.5px; font-family: 'Arial', 'DejaVu Sans', 'Liberation Sans', sans-serif; text-anchor: end" x="304.672274" y="51.618305" transform="rotate(-0 304.672274 51.618305)">Our method</text>
     </g>
    </g>
    <g id="ytick_8">
     <g id="line2d_31">
      <g>
       <use xlink:href="#md2a946cb6f" x="311.672274" y="88.309125" style="stroke: #000000; stroke-width: 0.8"/>
      </g>
     </g>
     <g id="text_24">
      <text style="font-size: 7.5px; font-family: 'Arial', 'DejaVu Sans', 'Liberation Sans', sans-serif; text-anchor: end" x="304.672274" y="90.993305" transform="rotate(-0 304.672274 90.993305)">Slither</text>
     </g>
    </g>
    <g id="ytick_9">
     <g id="line2d_32">
      <g>
       <use xlink:href="#md2a946cb6f" x="311.672274" y="127.684125" style="stroke: #000000; stroke-width: 0.8"/>
      </g>
     </g>
     <g id="text_25">
      <text style="font-size: 7.5px; font-family: 'Arial', 'DejaVu Sans', 'Liberation Sans', sans-serif; text-anchor: end" x="304.672274" y="130.368305" transform="rotate(-0 304.672274 130.368305)">Mythril</text>
     </g>
    </g>
    <g id="ytick_10">
     <g id="line2d_33">
      <g>
       <use xlink:href="#md2a946cb6f" x="311.672274" y="167.059125" style="stroke: #000000; stroke-width: 0.8"/>
      </g>
     </g>
     <g id="text_26">
      <text style="font-size: 7.5px; font-family: 'Arial', 'DejaVu Sans', 'Liberation Sans', sans-serif; text-anchor: end" x="304.672274" y="169.743305" transform="rotate(-0 304.672274 169.743305)">Sailfish</text>
     </g>
    </g>
    <g id="ytick_11">
     <g id="line2d_34">
      <g>
       <use xlink:href="#md2a946cb6f" x="311.672274" y="206.434125" style="stroke: #000000; stroke-width: 0.8"/>
      </g>
     </g>
     <g id="text_27">
      <text style="font-size: 7.5px; font-family: 'Arial', 'DejaVu Sans', 'Liberation Sans', sans-serif; text-anchor: end" x="304.672274" y="209.118305" transform="rotate(-0 304.672274 209.118305)">SliSE</text>
     </g>
    </g>
   </g>
   <g id="patch_16">
    <path d="M 311.672274 231.634125 
L 311.672274 23.734125 
" style="fill: none; stroke: #000000; stroke-width: 0.8; stroke-linejoin: miter; stroke-linecap: square"/>
   </g>
   <g id="patch_17">
    <path d="M 311.672274 231.634125 
L 462.168 231.634125 
" style="fill: none; stroke: #000000; stroke-width: 0.8; stroke-linejoin: miter; stroke-linecap: square"/>
   </g>
   <g id="text_28">
    <text style="font-size: 6.8px; font-family: 'Arial', 'DejaVu Sans', 'Liberation Sans', sans-serif; text-anchor: start; fill: #4d4d4d" x="378.51583" y="50.692031" transform="rotate(-0 378.51583 50.692031)">164</text>
   </g>
   <g id="text_29">
    <text style="font-size: 6.8px; font-family: 'Arial', 'DejaVu Sans', 'Liberation Sans', sans-serif; text-anchor: start; fill: #4d4d4d" x="443.404896" y="90.067031" transform="rotate(-0 443.404896 90.067031)">330</text>
   </g>
   <g id="text_30">
    <text style="font-size: 6.8px; font-family: 'Arial', 'DejaVu Sans', 'Liberation Sans', sans-serif; text-anchor: start; fill: #4d4d4d" x="382.42481" y="129.442031" transform="rotate(-0 382.42481 129.442031)">174</text>
   </g>
   <g id="text_31">
    <text style="font-size: 6.8px; font-family: 'Arial', 'DejaVu Sans', 'Liberation Sans', sans-serif; text-anchor: start; fill: #4d4d4d" x="369.916074" y="168.817031" transform="rotate(-0 369.916074 168.817031)">142</text>
   </g>
   <g id="text_32">
    <text style="font-size: 6.8px; font-family: 'Arial', 'DejaVu Sans', 'Liberation Sans', sans-serif; text-anchor: start; fill: #4d4d4d" x="417.214731" y="208.192031" transform="rotate(-0 417.214731 208.192031)">263</text>
   </g>
   <g id="text_33">
    <text style="font-weight: 700; font-size: 9px; font-family: 'Arial', 'DejaVu Sans', 'Liberation Sans', sans-serif; text-anchor: start" x="299.632615" y="13.642031" transform="rotate(-0 299.632615 13.642031)">b</text>
   </g>
   <g id="text_34">
    <text style="font-size: 8.5px; font-family: 'Arial', 'DejaVu Sans', 'Liberation Sans', sans-serif; text-anchor: start" x="311.672274" y="16.734125" transform="rotate(-0 311.672274 16.734125)">Error burden</text>
   </g>
   <g id="legend_1">
    <g id="patch_18">
     <path d="M 386.614688 224.162625 
L 400.214688 224.162625 
L 400.214688 219.402625 
L 386.614688 219.402625 
z
" style="fill: #e9a6a1; stroke: #ffffff; stroke-width: 0.5; stroke-linejoin: miter"/>
    </g>
    <g id="text_35">
     <text style="font-size: 6.8px; font-family: 'Arial', 'DejaVu Sans', 'Liberation Sans', sans-serif; text-anchor: start" x="405.654688" y="224.162625" transform="rotate(-0 405.654688 224.162625)">FP</text>
    </g>
    <g id="patch_19">
     <path d="M 427.943813 224.162625 
L 441.543813 224.162625 
L 441.543813 219.402625 
L 427.943813 219.402625 
z
" style="fill: #b4c0e4; stroke: #ffffff; stroke-width: 0.5; stroke-linejoin: miter"/>
    </g>
    <g id="text_36">
     <text style="font-size: 6.8px; font-family: 'Arial', 'DejaVu Sans', 'Liberation Sans', sans-serif; text-anchor: start" x="446.983813" y="224.162625" transform="rotate(-0 446.983813 224.162625)">FN</text>
    </g>
   </g>
  </g>
  <g id="text_37">
   <text style="font-size: 6.2px; font-family: 'Arial', 'DejaVu Sans', 'Liberation Sans', sans-serif; text-anchor: start; fill: #606060" x="7.2" y="257.401875" transform="rotate(-0 7.2 257.401875)">Source data: function-level benchmark. Metrics recomputed from TP, FP, FN and TN in the supplied table.</text>
  </g>
 </g>
 <defs>
  <clipPath id="p079e2c76db">
   <rect x="65.988" y="23.734125" width="188.119658" height="207.9"/>
  </clipPath>
  <clipPath id="padb7d27863">
   <rect x="311.672274" y="23.734125" width="150.495726" height="207.9"/>
  </clipPath>
 </defs>
</svg>
